<svg width="32" height="33" viewBox="0 0 32 33" fill="none" xmlns="http://www.w3.org/2000/svg">
<path fill-rule="evenodd" clip-rule="evenodd" d="M9.66663 13.5648C9.66663 11.8851 10.3339 10.2742 11.5216 9.08644C12.7093 7.89871 14.3203 7.23145 16 7.23145C17.6797 7.23145 19.2906 7.89871 20.4783 9.08644C21.666 10.2742 22.3333 11.8851 22.3333 13.5648C22.3333 15.2445 21.666 16.8554 20.4783 18.0431C19.2906 19.2309 17.6797 19.8981 16 19.8981C14.3203 19.8981 12.7093 19.2309 11.5216 18.0431C10.3339 16.8554 9.66663 15.2445 9.66663 13.5648ZM16 9.23145C14.8507 9.23145 13.7485 9.68799 12.9358 10.5006C12.1232 11.3133 11.6666 12.4155 11.6666 13.5648C11.6666 14.714 12.1232 15.8162 12.9358 16.6289C13.7485 17.4416 14.8507 17.8981 16 17.8981C17.1492 17.8981 18.2514 17.4416 19.0641 16.6289C19.8767 15.8162 20.3333 14.714 20.3333 13.5648C20.3333 12.4155 19.8767 11.3133 19.0641 10.5006C18.2514 9.68799 17.1492 9.23145 16 9.23145Z" fill="white"/>
<path fill-rule="evenodd" clip-rule="evenodd" d="M4.69864 12.0406C4.92714 9.27658 6.18639 6.69945 8.2265 4.82062C10.2666 2.94178 12.9385 1.89856 15.712 1.89795H16.288C19.0614 1.89856 21.7333 2.94178 23.7734 4.82062C25.8136 6.69945 27.0728 9.27658 27.3013 12.0406C27.5555 15.1197 26.6042 18.1772 24.648 20.5686L18.2573 28.3833C17.9838 28.7177 17.6394 28.9872 17.249 29.1723C16.8586 29.3573 16.432 29.4533 16 29.4533C15.5679 29.4533 15.1413 29.3573 14.7509 29.1723C14.3605 28.9872 14.0161 28.7177 13.7426 28.3833L7.35197 20.5686C5.39575 18.1772 4.44446 15.1197 4.69864 12.0406ZM15.712 3.89795C13.4408 3.89891 11.2529 4.75348 9.58238 6.29215C7.91183 7.83081 6.88062 9.94117 6.6933 12.2046C6.48168 14.7671 7.27331 17.3117 8.9013 19.3019L15.292 27.1179C15.3779 27.2231 15.4861 27.3078 15.6088 27.366C15.7314 27.4242 15.8655 27.4544 16.0013 27.4544C16.1371 27.4544 16.2712 27.4242 16.3938 27.366C16.5165 27.3078 16.6247 27.2231 16.7106 27.1179L23.1013 19.3019C24.7283 17.3113 25.519 14.7668 25.3066 12.2046C25.1193 9.94094 24.0879 7.8304 22.4171 6.29169C20.7462 4.75299 18.558 3.89857 16.2866 3.89795H15.712Z" fill="white"/>
</svg>
