<svg width="24" height="25" viewBox="0 0 24 25" fill="none" xmlns="http://www.w3.org/2000/svg">
<path d="M22.6 24.2314C19.8222 24.2314 17.0778 23.6261 14.3667 22.4154C11.6556 21.2048 9.18889 19.4879 6.96667 17.2648C4.74445 15.0417 3.028 12.575 1.81733 9.86478C0.606667 7.15456 0.000888889 4.41011 0 1.63145C0 1.23145 0.133333 0.898112 0.4 0.631445C0.666667 0.364779 1 0.231445 1.4 0.231445H6.8C7.11111 0.231445 7.38889 0.337223 7.63333 0.548779C7.87778 0.760334 8.02222 1.01011 8.06667 1.29811L8.93333 5.96478C8.97778 6.32033 8.96667 6.62033 8.9 6.86478C8.83333 7.10922 8.71111 7.32033 8.53333 7.49811L5.3 10.7648C5.74444 11.587 6.272 12.3812 6.88267 13.1474C7.49333 13.9137 8.16578 14.6528 8.9 15.3648C9.58889 16.0537 10.3111 16.6928 11.0667 17.2821C11.8222 17.8714 12.6222 18.4101 13.4667 18.8981L16.6 15.7648C16.8 15.5648 17.0613 15.415 17.384 15.3154C17.7067 15.2159 18.0231 15.1879 18.3333 15.2314L22.9333 16.1648C23.2444 16.2537 23.5 16.415 23.7 16.6488C23.9 16.8826 24 17.1434 24 17.4314V22.8314C24 23.2314 23.8667 23.5648 23.6 23.8314C23.3333 24.0981 23 24.2314 22.6 24.2314ZM4.03333 8.23145L6.23333 6.03145L5.66667 2.89811H2.7C2.81111 3.80922 2.96667 4.70922 3.16667 5.59811C3.36667 6.487 3.65556 7.36478 4.03333 8.23145ZM15.9667 20.1648C16.8333 20.5426 17.7169 20.8426 18.6173 21.0648C19.5178 21.287 20.4231 21.4314 21.3333 21.4981V18.5648L18.2 17.9314L15.9667 20.1648Z" fill="white"/>
</svg>
