<svg width="49" height="48" viewBox="0 0 49 48" fill="none" xmlns="http://www.w3.org/2000/svg">
<path d="M14.0864 14.476C20.1004 15.536 23.6844 17.754 24.9204 19.028C26.1564 17.754 29.7404 15.536 35.7564 14.476C38.8024 13.938 40.3264 13.67 41.6224 14.7C42.9204 15.728 42.9204 17.4 42.9204 20.744V32.758C42.9204 35.816 42.9204 37.344 42.0884 38.298C41.2544 39.252 39.4224 39.576 35.7564 40.222C32.4864 40.798 29.9364 41.716 28.0904 42.638C26.2724 43.546 25.3644 44 24.9204 44M24.9204 44C24.4764 44 23.5664 43.546 21.7504 42.64C19.9044 41.716 17.3544 40.798 14.0864 40.22C10.4184 39.576 8.58641 39.252 7.75241 38.298C6.91841 37.344 6.92041 35.816 6.92041 32.758V20.744C6.92041 17.4 6.92041 15.728 8.21841 14.7C9.51441 13.67 11.0384 13.94 14.0844 14.476M24.9204 44V18M17.9204 6.11799C19.9934 4.73398 22.4309 3.997 24.9234 4.00056C27.416 4.00412 29.8513 4.74806 31.9204 6.13799M28.1644 11C27.1872 10.4064 26.0665 10.0908 24.9232 10.0872C23.7798 10.0837 22.6572 10.3924 21.6764 10.98" stroke="#FFD400" stroke-width="3" stroke-linecap="round" stroke-linejoin="round"/>
</svg>
