<svg width="32" height="33" viewBox="0 0 32 33" fill="none" xmlns="http://www.w3.org/2000/svg">
<path d="M5.33335 26.898C4.60002 26.898 3.97247 26.6371 3.45069 26.1154C2.92891 25.5936 2.66758 24.9656 2.66669 24.2314V8.23136C2.66669 7.49803 2.92802 6.87047 3.45069 6.3487C3.97335 5.82692 4.60091 5.56559 5.33335 5.5647H26.6667C27.4 5.5647 28.028 5.82603 28.5507 6.3487C29.0734 6.87136 29.3342 7.49892 29.3334 8.23136V24.2314C29.3334 24.9647 29.0725 25.5927 28.5507 26.1154C28.0289 26.638 27.4009 26.8989 26.6667 26.898H5.33335ZM16 17.5647L5.33335 10.898V24.2314H26.6667V10.898L16 17.5647ZM16 14.898L26.6667 8.23136H5.33335L16 14.898ZM5.33335 10.898V8.23136V24.2314V10.898Z" fill="white"/>
</svg>
