<svg width="49" height="48" viewBox="0 0 49 48" fill="none" xmlns="http://www.w3.org/2000/svg">
<path d="M34.9204 36C35.9813 36 36.9987 36.4214 37.7488 37.1716C38.499 37.9217 38.9204 38.9391 38.9204 40C38.9204 41.0609 38.499 42.0783 37.7488 42.8284C36.9987 43.5786 35.9813 44 34.9204 44C33.8595 44 32.8421 43.5786 32.092 42.8284C31.3418 42.0783 30.9204 41.0609 30.9204 40C30.9204 37.78 32.7004 36 34.9204 36ZM2.92041 4H9.46041L11.3404 8H40.9204C41.4508 8 41.9596 8.21071 42.3346 8.58579C42.7097 8.96086 42.9204 9.46957 42.9204 10C42.9204 10.34 42.8204 10.68 42.6804 11L35.5204 23.94C34.8404 25.16 33.5204 26 32.0204 26H17.1204L15.3204 29.26L15.2604 29.5C15.2604 29.6326 15.3131 29.7598 15.4069 29.8536C15.5006 29.9473 15.6278 30 15.7604 30H38.9204V34H14.9204C13.8595 34 12.8421 33.5786 12.092 32.8284C11.3418 32.0783 10.9204 31.0609 10.9204 30C10.9204 29.3 11.1004 28.64 11.4004 28.08L14.1204 23.18L6.92041 8H2.92041V4ZM14.9204 36C15.9813 36 16.9987 36.4214 17.7488 37.1716C18.499 37.9217 18.9204 38.9391 18.9204 40C18.9204 41.0609 18.499 42.0783 17.7488 42.8284C16.9987 43.5786 15.9813 44 14.9204 44C13.8595 44 12.8421 43.5786 12.092 42.8284C11.3418 42.0783 10.9204 41.0609 10.9204 40C10.9204 37.78 12.7004 36 14.9204 36ZM32.9204 22L38.4804 12H13.2004L17.9204 22H32.9204Z" fill="#FFD400"/>
</svg>
