<svg width="49" height="48" viewBox="0 0 49 48" fill="none" xmlns="http://www.w3.org/2000/svg">
<path d="M33.6404 28C33.8004 26.68 33.9204 25.36 33.9204 24C33.9204 22.64 33.8004 21.32 33.6404 20H40.4004C40.7204 21.28 40.9204 22.62 40.9204 24C40.9204 25.38 40.7204 26.72 40.4004 28M30.1004 39.12C31.3004 36.9 32.2204 34.5 32.8604 32H38.7604C36.8227 35.3366 33.7486 37.864 30.1004 39.12ZM29.6004 28H20.2404C20.0404 26.68 19.9204 25.36 19.9204 24C19.9204 22.64 20.0404 21.3 20.2404 20H29.6004C29.7804 21.3 29.9204 22.64 29.9204 24C29.9204 25.36 29.7804 26.68 29.6004 28ZM24.9204 39.92C23.2604 37.52 21.9204 34.86 21.1004 32H28.7404C27.9204 34.86 26.5804 37.52 24.9204 39.92ZM16.9204 16H11.0804C12.9977 12.6541 16.0697 10.1225 19.7204 8.88C18.5204 11.1 17.6204 13.5 16.9204 16ZM11.0804 32H16.9204C17.6204 34.5 18.5204 36.9 19.7204 39.12C16.0769 37.8646 13.009 35.3364 11.0804 32ZM9.44041 28C9.12041 26.72 8.92041 25.38 8.92041 24C8.92041 22.62 9.12041 21.28 9.44041 20H16.2004C16.0404 21.32 15.9204 22.64 15.9204 24C15.9204 25.36 16.0404 26.68 16.2004 28M24.9204 8.06C26.5804 10.46 27.9204 13.14 28.7404 16H21.1004C21.9204 13.14 23.2604 10.46 24.9204 8.06ZM38.7604 16H32.8604C32.2335 13.5232 31.3066 11.1322 30.1004 8.88C33.7804 10.14 36.8404 12.68 38.7604 16ZM24.9204 4C13.8604 4 4.92041 13 4.92041 24C4.92041 29.3043 7.02755 34.3914 10.7783 38.1421C12.6354 39.9993 14.8402 41.4725 17.2667 42.4776C19.6933 43.4827 22.294 44 24.9204 44C30.2247 44 35.3118 41.8929 39.0625 38.1421C42.8133 34.3914 44.9204 29.3043 44.9204 24C44.9204 21.3736 44.4031 18.7728 43.398 16.3463C42.3929 13.9198 40.9197 11.715 39.0625 9.85786C37.2054 8.00069 35.0006 6.5275 32.5741 5.52241C30.1476 4.51732 27.5468 4 24.9204 4Z" fill="#FFD400"/>
</svg>
