<svg width="49" height="48" viewBox="0 0 49 48" fill="none" xmlns="http://www.w3.org/2000/svg">
<path d="M12.9204 5.5C12.9206 5.21722 12.841 4.94012 12.6906 4.70067C12.5401 4.46121 12.3251 4.26915 12.0702 4.14663C11.8154 4.02412 11.5311 3.97614 11.2501 4.00823C10.9692 4.04032 10.703 4.15117 10.4824 4.328C7.86236 6.426 6.43636 8.264 5.68636 9.864C5.1463 10.9981 4.88374 12.2444 4.92036 13.5C4.92036 15.392 5.87436 17.06 7.32836 18.05C6.92865 18.3875 6.5868 18.7882 6.31636 19.236C5.36436 20.776 4.92036 23.13 4.92036 26.51C4.92036 29.934 5.38036 34.046 6.13036 37.33C6.50236 38.962 6.96436 40.468 7.51436 41.598C7.78836 42.16 8.12236 42.708 8.53436 43.138C8.94636 43.56 9.58036 44.01 10.4204 44.01C11.2604 44.01 11.8944 43.56 12.3044 43.138C12.7218 42.6804 13.0659 42.1609 13.3244 41.598C13.8764 40.466 14.3384 38.962 14.7104 37.328C15.4912 33.7736 15.8967 30.1471 15.9204 26.508C15.9204 23.128 15.4764 20.776 14.5244 19.236C14.2539 18.7882 13.9121 18.3875 13.5124 18.05C14.2544 17.5456 14.8618 16.8672 15.2816 16.0741C15.7013 15.281 15.9206 14.3973 15.9204 13.5C15.9204 11.646 15.0484 10.352 14.3844 9.364L14.3264 9.278C13.5464 8.116 12.9204 7.16 12.9204 5.5ZM7.92036 13.5C7.92036 12.904 7.92036 12.168 8.40436 11.138C8.74036 10.416 9.34236 9.5 10.4284 8.396C10.8144 9.43 11.3544 10.236 11.8124 10.916L11.8364 10.952C12.5504 12.014 12.9204 12.622 12.9204 13.5C12.9204 14.163 12.657 14.7989 12.1881 15.2678C11.7193 15.7366 11.0834 16 10.4204 16C9.75732 16 9.12143 15.7366 8.65259 15.2678C8.18375 14.7989 7.92036 14.163 7.92036 13.5ZM7.92036 26.51C7.92036 23.264 8.37236 21.616 8.86836 20.812C9.01926 20.5423 9.24501 20.3221 9.51836 20.178C9.80194 20.0529 10.1107 19.9953 10.4204 20.01C10.8204 20.01 11.1064 20.072 11.3224 20.178C11.5224 20.274 11.7464 20.448 11.9724 20.812C12.4684 21.616 12.9204 23.264 12.9204 26.51C12.9204 29.712 12.4844 33.6 11.7864 36.662C11.4344 38.202 11.0344 39.452 10.6284 40.284C10.5638 40.4165 10.4945 40.5466 10.4204 40.674C10.3463 40.5466 10.2769 40.4165 10.2124 40.284C9.80636 39.452 9.40636 38.2 9.05436 36.662C8.32513 33.3265 7.94508 29.9242 7.92036 26.51ZM17.8884 28.154C18.8509 28.5771 19.8741 28.8457 20.9204 28.95V24.5C20.9204 23.6464 21.0885 22.8012 21.4151 22.0126C21.7418 21.2239 22.2206 20.5074 22.8242 19.9038C23.4277 19.3002 24.1443 18.8214 24.9329 18.4948C25.7215 18.1681 26.5668 18 27.4204 18H31.8704C31.7061 16.363 31.1405 14.7917 30.2236 13.4256C29.3067 12.0595 28.067 10.9407 26.6142 10.1684C25.1615 9.39616 23.5406 8.99427 21.8953 8.99838C20.2501 9.00249 18.6312 9.41248 17.1824 10.192C16.8711 9.53536 16.5044 8.90642 16.0864 8.312L15.9864 8.164L15.6284 7.62C17.5336 6.56615 19.6731 6.00772 21.8504 5.99597C24.0277 5.98422 26.173 6.51952 28.0896 7.55275C30.0061 8.58597 31.6325 10.084 32.8193 11.9094C34.0062 13.7348 34.7156 15.8291 34.8824 18H38.4204C39.2739 18 40.1192 18.1681 40.9078 18.4948C41.6964 18.8214 42.413 19.3002 43.0166 19.9038C43.6201 20.5074 44.0989 21.2239 44.4256 22.0126C44.7522 22.8012 44.9204 23.6464 44.9204 24.5V35.5C44.9204 36.3536 44.7522 37.1988 44.4256 37.9874C44.0989 38.7761 43.6201 39.4926 43.0166 40.0962C42.413 40.6998 41.6964 41.1786 40.9078 41.5052C40.1192 41.8319 39.2739 42 38.4204 42H27.4204C25.6965 42 24.0432 41.3152 22.8242 40.0962C21.6052 38.8772 20.9204 37.2239 20.9204 35.5V31.962C19.8156 31.8777 18.7261 31.6526 17.6784 31.292C17.7784 30.232 17.8504 29.176 17.8884 28.154ZM38.4204 21H34.7684C34.3431 23.7244 33.0632 26.2433 31.1135 28.1931C29.1637 30.1429 26.6448 31.4228 23.9204 31.848V35.5C23.9204 37.432 25.4884 39 27.4204 39H38.4204C39.3486 39 40.2389 38.6312 40.8952 37.9749C41.5516 37.3185 41.9204 36.4283 41.9204 35.5V24.5C41.9204 23.5717 41.5516 22.6815 40.8952 22.0251C40.2389 21.3687 39.3486 21 38.4204 21ZM23.9204 28.8C25.8411 28.4056 27.6038 27.4564 28.9903 26.07C30.3768 24.6835 31.326 22.9207 31.7204 21H27.4204C26.4921 21 25.6019 21.3687 24.9455 22.0251C24.2891 22.6815 23.9204 23.5717 23.9204 24.5V28.8Z" fill="#FFD400"/>
</svg>
