<svg width="231" height="203" viewBox="0 0 231 203" fill="none" xmlns="http://www.w3.org/2000/svg">
<g clip-path="url(#clip0_115_1941)">
<path d="M214.405 23.6182H32.1911C25.5069 23.6182 20.0715 29.0493 20.0715 35.7284V160.499C20.0715 167.178 25.5069 172.609 32.1911 172.609H214.405C221.089 172.609 226.524 167.178 226.524 160.499V35.7284C226.524 29.0493 221.089 23.6182 214.405 23.6182Z" fill="#F2F2F2"/>
<path d="M194.636 33.2288H12.4225C5.73831 33.2288 0.302979 38.6599 0.302979 45.339V170.109C0.302979 176.788 5.73831 182.22 12.4225 182.22H194.636C201.32 182.22 206.756 176.788 206.756 170.109V45.339C206.756 38.6599 201.32 33.2288 194.636 33.2288ZM205.481 133.386C205.481 159.653 184.172 180.946 157.885 180.946H12.4225C6.43291 180.946 1.57738 176.094 1.57738 170.109V45.339C1.57738 39.354 6.4329 34.5022 12.4225 34.5022H194.636C200.626 34.5022 205.481 39.354 205.481 45.3391V133.386Z" fill="#1D2B53"/>
<path d="M26.3301 155.18L25.2517 154.502C25.9527 153.388 26.6761 152.309 27.401 151.294L28.4383 152.034C27.7274 153.029 27.0183 154.087 26.3301 155.18Z" fill="#CCCCCC"/>
<path d="M33.3571 146.105L32.4448 145.216C34.3894 143.225 36.436 141.515 38.5275 140.135L39.23 141.198C37.2142 142.528 35.2382 144.179 33.3571 146.105ZM65.1505 138.067C63.6287 138.067 62.2423 137.873 61.2044 137.703L61.4103 136.446C62.462 136.618 63.7286 136.794 65.1505 136.794C66.4062 136.794 67.6404 136.656 68.9236 136.372L69.1986 137.616C67.824 137.92 66.4998 138.067 65.1505 138.067ZM46.0815 137.899L45.6981 136.684C47.0671 136.253 48.4853 135.929 49.9131 135.723C51.1392 135.546 52.3116 135.459 53.4967 135.459H53.5751V136.733H53.4967C52.3732 136.733 51.2609 136.815 50.0957 136.983C48.7357 137.18 47.3848 137.488 46.0815 137.899ZM76.4576 134.219L75.6431 133.239C77.4016 131.78 78.662 130.015 79.9968 128.146L80.5291 127.403L81.5633 128.147L81.0341 128.886C79.6502 130.823 78.3428 132.654 76.4576 134.219ZM86.6777 122.543L85.8937 121.538C87.6114 120.199 89.5523 119.114 91.8267 118.221C92.214 118.068 92.5843 117.932 92.9396 117.811L93.3509 119.016C93.013 119.132 92.6614 119.261 92.293 119.406C90.1341 120.254 88.2975 121.279 86.6777 122.543ZM102.063 118.12C101.634 118.12 101.228 118.116 100.837 118.111L100.852 116.838C101.251 116.842 101.668 116.843 102.109 116.846C103.609 116.846 105.698 116.804 108.562 116.472L108.709 117.737C105.75 118.079 103.628 118.115 102.063 118.12ZM116.462 116.452L116.209 115.204C118.498 114.741 121.161 114.191 123.797 113.511L124.115 114.744C121.449 115.432 118.767 115.986 116.462 116.452ZM131.622 112.33L131.146 111.149C133.701 110.12 135.92 108.959 137.929 107.599L138.643 108.654C136.559 110.064 134.262 111.267 131.622 112.33ZM144.499 103.231L143.464 102.487C143.82 101.993 144.127 101.512 144.425 101.047C145.302 99.6745 146.21 98.2546 148.37 96.5117L148.522 96.3908L149.311 97.39L149.171 97.5022C147.172 99.1152 146.359 100.387 145.499 101.733C145.192 102.213 144.875 102.709 144.499 103.231ZM155.931 93.6801L155.466 92.4943C157.738 91.6046 160.303 90.8886 163.091 90.366L163.326 91.6176C160.617 92.1256 158.128 92.8195 155.931 93.6801Z" fill="#CCCCCC"/>
<path d="M171.116 90.6825L171.036 89.4115C172.274 89.3341 173.569 89.2831 174.884 89.2595L174.907 90.5329C173.611 90.556 172.335 90.6063 171.116 90.6825Z" fill="#CCCCCC"/>
<path d="M40.5409 47.0271H22.661C21.7626 47.0271 21.0298 47.7593 21.0298 48.6571C21.0298 49.5612 21.7626 50.2934 22.661 50.2934H40.5409C41.4393 50.2934 42.1721 49.5612 42.1721 48.6571C42.1721 47.7593 41.4393 47.0271 40.5409 47.0271Z" fill="#E6E6E6"/>
<path d="M70.4894 47.0271H52.6095C51.7111 47.0271 50.9783 47.7593 50.9783 48.6571C50.9783 49.5612 51.7111 50.2934 52.6095 50.2934H70.4894C71.3878 50.2934 72.1206 49.5612 72.1206 48.6571C72.1206 47.7593 71.3878 47.0271 70.4894 47.0271Z" fill="#E6E6E6"/>
<path d="M100.438 47.0271H82.5577C81.6593 47.0271 80.9265 47.7593 80.9265 48.6571C80.9265 49.5612 81.6593 50.2934 82.5577 50.2934H100.438C101.336 50.2934 102.069 49.5612 102.069 48.6571C102.069 47.7593 101.336 47.0271 100.438 47.0271Z" fill="#E6E6E6"/>
<path d="M183.498 154.204H21.012V155.478H183.498V154.204Z" fill="#E6E6E6"/>
<path d="M174.915 61.2441C163.35 61.5434 154.722 64.9434 149.255 71.336C147.235 73.7046 146.413 75.5702 145.546 77.544C144.686 79.4923 143.807 81.498 141.761 84.1149V81.95C143.029 80.0908 143.711 78.5372 144.38 77.0282C145.285 74.9653 146.145 73.0169 148.286 70.5147C153.995 63.8292 162.942 60.2827 174.876 59.9707L174.915 61.2441Z" fill="#CCCCCC"/>
<path d="M145.546 77.544C144.686 79.4924 143.807 81.498 141.761 84.1149C141.519 84.4269 141.258 84.7516 140.977 85.0891C133.599 93.8566 123.741 96.7346 115.814 99.0522C115.317 99.1986 114.833 99.3324 114.362 99.4597C107.314 101.37 103.453 101.3 100.579 101.255C97.6924 101.204 95.7872 101.172 92.3782 103.121C86.1272 106.68 83.5657 111.888 81.087 116.925C78.5318 122.108 76.1232 127.004 69.9806 129.302C65.7177 130.894 62.7229 130.105 59.556 129.277C56.8352 128.557 51.9314 110.848 47.5894 108.265C38.624 110.144 33.176 139.42 26.377 155.096L25.2046 154.586C32.1819 138.516 37.9294 108.991 47.3218 107.018C51.5082 106.139 57.02 127.29 59.881 128.042C62.8503 128.825 65.6476 129.557 69.5346 128.105C75.2056 125.992 77.3976 121.528 79.94 116.364C82.3869 111.398 85.1587 105.77 91.741 102.013C95.4558 99.8927 97.6159 99.9309 100.598 99.9818C103.44 100.033 107.276 100.096 114.362 98.1417C114.718 98.0398 115.082 97.938 115.458 97.8297C123.219 95.563 132.872 92.7424 139.996 84.2741C140.697 83.44 141.277 82.6696 141.761 81.9501C143.029 80.0909 143.711 78.5373 144.38 77.0283C145.285 74.9654 146.413 75.5702 145.546 77.544Z" fill="#FF004D"/>
<path d="M77.5954 223.211C77.091 221.456 76.2272 219.959 75.1988 218.891L71.4625 201.872L63.3184 203.866L67.9853 220.915C67.6784 222.358 67.7398 224.08 68.2443 225.835C69.3966 229.845 72.424 232.507 75.0063 231.783C77.5885 231.058 78.7477 227.221 77.5954 223.211Z" fill="#FFB6B6"/>
<path d="M76.4688 111.569C76.4688 111.569 63.6074 111.306 60.337 120.665C57.3604 129.184 53.8316 152.587 55.7392 153.939L63.8588 211.553L75.4373 209.963L72.4657 140.836L76.4688 111.569Z" fill="#FF004D"/>
<path d="M111.813 100.084L90.7851 98.8103L83.7759 107.724L68.4832 113.455L75.4923 181.583L72.3064 222.333C72.3064 222.333 116.91 257.989 136.026 218.512L130.929 170.759L132.203 115.365L117.548 108.998L111.813 100.084Z" fill="#FF004D"/>
<path d="M152.294 84.5868C152.522 86.7943 152.233 88.8702 151.566 90.5346L155.068 111.426L145.071 112.801L142.594 91.4605C141.6 89.9674 140.892 87.9945 140.664 85.787C140.143 80.7441 142.324 76.3873 145.535 76.0559C148.747 75.7245 151.773 79.5439 152.294 84.5868Z" fill="#FFB6B6"/>
<path d="M134.881 117.757C131.434 111.871 122.885 111.316 119.056 116.961C118.009 118.504 118.301 120.239 118.051 122.323C116.99 131.171 133.958 157.317 145.699 160.327C147.24 160.722 148.117 162.383 149.673 162.717C154.279 163.706 158.568 160.053 158.32 155.351L155.13 95.0491L141.732 99.6156L142.589 130.923L134.881 117.757Z" fill="#FF004D"/>
<path d="M103.481 97.1626C113.711 97.1626 122.003 88.8764 122.003 78.6548C122.003 68.4332 113.711 60.147 103.481 60.147C93.2518 60.147 84.9592 68.4332 84.9592 78.6548C84.9592 88.8764 93.2518 97.1626 103.481 97.1626Z" fill="#FFB6B6"/>
<path d="M120.734 65.0644C120.574 65.1027 123.172 62.5729 123.282 62.5176C125.831 61.2442 123.212 73.6919 121.371 73.3417C116.84 72.4821 114.884 70.7757 113.125 75.0353C112.635 76.2196 112.329 77.5567 111.373 78.4036C110.061 79.556 107.881 79.4605 106.811 80.8358C105.951 81.9437 106.199 83.5737 106.836 84.8216C107.473 86.076 108.442 87.1393 109.022 88.4191C109.672 89.858 106.9 94.436 105.842 97.0083V97.0147L105.836 97.0298C105.555 97.7045 104.887 95.7608 104.182 95.5668C103.338 95.3346 102.095 97.3255 100.751 96.9637C100.745 96.9637 100.738 96.9574 100.732 96.9574C99.4511 96.6008 98.0238 96.2188 96.6092 95.8367H96.6029C92.6204 94.7544 91.6136 96.3079 91.4224 96.2634L88.9501 93.6783C88.1016 93.061 88.1975 91.0682 87.5992 90.5329C87.1099 90.0952 85.8901 91.1067 85.5306 90.686C83.7679 88.623 83.3623 86.5593 82.3232 82.4849C81.3738 78.7601 79.4049 67.6113 83.4511 67.1083C87.2679 66.6307 84.4769 61.3206 88.3193 61.5179C88.0899 60.5501 88.5168 59.5123 89.2114 58.7992C89.8995 58.0797 90.8171 57.634 91.741 57.252C96.297 55.3928 95.5388 53.7946 100.343 54.877C100.821 54.2085 107.76 54.6542 108.627 54.877C108.691 54.8897 106.479 55.4183 109.901 54.877C109.774 55.6602 111.94 56.004 111.813 56.7872C112.291 56.1441 117.427 59.837 117.548 60.6074C117.707 61.5689 116.254 61.0786 117.223 61.225C117.796 61.3142 118.777 62.4794 118.682 63.0588C119.096 62.4985 119.51 61.9445 119.931 61.3842C120.007 61.3906 120.077 61.4033 120.154 61.416C122.091 61.7853 119.87 68.113 119.95 66.1405C120.096 62.5176 122.664 64.6378 120.734 65.0644Z" fill="#2F2E41"/>
<path d="M191.692 163.571C191.835 163.922 192.327 163.922 192.47 163.571C193.465 161.12 194.881 158.375 196.422 156.278C196.669 155.942 196.329 155.493 195.937 155.635L192.634 156.829V136.399H191.528V156.829L188.224 155.635C187.832 155.493 187.492 155.942 187.739 156.278C189.28 158.375 190.696 161.12 191.692 163.571Z" fill="#1D2B53"/>
<path d="M213.351 184.607C213.244 184.97 213.63 185.276 213.96 185.09C216.265 183.789 219.082 182.52 221.594 181.835C221.997 181.725 222.01 181.162 221.614 181.03L218.285 179.912L231 163.914L230.134 163.227L217.419 179.225L215.575 176.237C215.356 175.882 214.811 176.022 214.795 176.438C214.696 179.039 214.097 182.069 213.351 184.607Z" fill="#1D2B53"/>
<path d="M203.007 198.24H181.52C180.186 198.24 179.1 197.156 179.1 195.823C176.259 187.525 176.316 179.395 179.1 171.422C179.1 170.089 180.186 169.004 181.52 169.004H203.007C204.341 169.004 205.427 170.089 205.427 171.422V195.823C205.427 197.156 204.341 198.24 203.007 198.24Z" fill="#E6E6E6"/>
<path d="M186.124 169.724C182.643 169.724 179.821 172.544 179.821 176.022V195.305C179.821 196.528 180.814 197.52 182.038 197.52H193.92C199.877 197.52 204.706 192.695 204.706 186.743V171.939C204.706 170.716 203.713 169.724 202.489 169.724H186.124Z" fill="white"/>
<path d="M197.268 176.815H187.208C186.954 176.815 186.748 176.609 186.748 176.356C186.748 176.102 186.954 175.896 187.208 175.896H197.268C197.521 175.896 197.728 176.102 197.728 176.356C197.728 176.609 197.521 176.815 197.268 176.815Z" fill="#E6E6E6"/>
<path d="M197.268 186.616H187.208C186.954 186.616 186.748 186.41 186.748 186.156C186.748 185.903 186.954 185.697 187.208 185.697H197.268C197.521 185.697 197.728 185.903 197.728 186.156C197.728 186.41 197.521 186.616 197.268 186.616Z" fill="#E6E6E6"/>
<path d="M202.666 181.719H181.809C181.556 181.719 181.349 181.513 181.349 181.259C181.349 181.006 181.556 180.8 181.809 180.8H202.666C202.92 180.8 203.126 181.006 203.126 181.259C203.126 181.513 202.92 181.719 202.666 181.719Z" fill="#E6E6E6"/>
<path d="M202.912 190.601H194.209C193.956 190.601 193.749 190.395 193.749 190.141C193.749 189.888 193.956 189.682 194.209 189.682H202.912C203.166 189.682 203.372 189.888 203.372 190.141C203.372 190.395 203.166 190.601 202.912 190.601Z" fill="#E6E6E6"/>
<path d="M7.9416 15.741C12.3276 15.741 15.8832 12.263 15.8832 7.97268C15.8832 3.68235 12.3276 0.204346 7.9416 0.204346C3.55557 0.204346 0 3.68235 0 7.97268C0 12.263 3.55557 15.741 7.9416 15.741Z" fill="#FF004D"/>
<path d="M71.6061 5.31518H28.8596C27.3931 5.31518 26.2 4.12294 26.2 2.65759C26.2 1.19224 27.3931 0 28.8596 0H71.6061C73.0725 0 74.2657 1.19224 74.2657 2.65759C74.2657 4.12294 73.0725 5.31518 71.6061 5.31518Z" fill="#F2F2F2"/>
<path d="M104.966 14.3101H28.8596C27.3931 14.3101 26.2 13.1178 26.2 11.6525C26.2 10.1871 27.3931 8.99487 28.8596 8.99487H104.966C106.432 8.99487 107.625 10.1871 107.625 11.6525C107.625 13.1178 106.432 14.3101 104.966 14.3101Z" fill="#F2F2F2"/>
</g>
<defs>
<clipPath id="clip0_115_1941">
<rect width="231" height="279" fill="white"/>
</clipPath>
</defs>
</svg>
