<svg width="437" height="310" viewBox="0 0 437 310" fill="none" xmlns="http://www.w3.org/2000/svg">
<path d="M205.408 0.169434L32.9556 105.356H377.951L205.408 0.169434Z" fill="white"/>
<path d="M386.799 100.661H24.0169V111.857H386.799V100.661Z" fill="white"/>
<path d="M366.304 105.808H44.6029V129.193H366.304V105.808Z" fill="white"/>
<path d="M366.484 247.291H44.7835V270.676H366.484V247.291Z" fill="white"/>
<path d="M378.131 267.335H33.1362V290.72H378.131V267.335Z" fill="white"/>
<path d="M401.065 286.477H10.293V309.862H401.065V286.477Z" fill="white"/>
<path d="M84.2399 123.595H53.4512V141.833H84.2399V123.595Z" fill="white"/>
<path d="M83.337 240.7H54.3541V258.938H83.337V240.7Z" fill="white"/>
<path d="M77.2876 123.595H60.4938V251.986H77.2876V123.595Z" fill="white"/>
<path d="M138.865 123.595H108.076V141.833H138.865V123.595Z" fill="white"/>
<path d="M137.962 240.7H108.979V258.938H137.962V240.7Z" fill="white"/>
<path d="M131.913 123.595H115.119V251.986H131.913V123.595Z" fill="white"/>
<path d="M193.49 123.595H162.701V141.833H193.49V123.595Z" fill="white"/>
<path d="M192.587 240.7H163.604V258.938H192.587V240.7Z" fill="white"/>
<path d="M186.538 123.595H169.744V251.986H186.538V123.595Z" fill="white"/>
<path d="M248.115 123.595H217.326V141.833H248.115V123.595Z" fill="white"/>
<path d="M247.212 240.7H218.229V258.938H247.212V240.7Z" fill="white"/>
<path d="M241.163 123.595H224.369V251.986H241.163V123.595Z" fill="white"/>
<path d="M357.365 123.595H326.576V141.833H357.365V123.595Z" fill="white"/>
<path d="M356.462 240.7H327.479V258.938H356.462V240.7Z" fill="white"/>
<path d="M350.413 123.595H333.619V251.986H350.413V123.595Z" fill="white"/>
<path d="M302.74 123.595H271.951V141.833H302.74V123.595Z" fill="white"/>
<path d="M301.837 240.7H272.854V258.938H301.837V240.7Z" fill="white"/>
<path d="M295.788 123.595H278.994V251.986H295.788V123.595Z" fill="white"/>
<path d="M297.413 309.862H152.228L153.311 303.09C154.395 295.957 160.534 290.72 167.757 290.72H281.883C289.106 290.72 295.246 295.957 296.329 303.09L297.413 309.862Z" fill="#1D2B53"/>
<path d="M282.425 297.221H167.125L168.209 288.192C168.931 282.414 173.807 278.08 179.676 278.08H269.875C275.743 278.08 280.619 282.414 281.341 288.192L282.425 297.221Z" fill="#1D2B53"/>
<path d="M56.6114 226.344H6.04938C5.68822 226.344 5.41736 226.163 5.23678 225.893C5.0562 225.622 5.0562 225.261 5.23678 224.99L30.5178 170.094C30.6983 169.733 30.9692 169.552 31.3304 169.552C31.6915 169.552 32.0527 169.733 32.143 170.094L57.424 224.99C57.5143 225.261 57.5143 225.622 57.424 225.893C57.2434 226.163 56.9725 226.344 56.6114 226.344ZM7.49401 224.538H55.1667L31.3304 172.893L7.49401 224.538Z" fill="#1D2B53"/>
<path d="M2.34752 222.642C3.06984 237.991 15.8006 250.18 31.3304 250.18C46.8601 250.18 59.5909 237.901 60.3132 222.642H2.34752Z" fill="#1D2B53"/>
<path d="M140.219 309.862H44.2417C44.2417 303.722 49.2076 298.756 55.3473 298.756H129.023C135.163 298.756 140.129 303.722 140.129 309.862H140.219Z" fill="#FF004D"/>
<path d="M152.679 171.99H31.7818C30.1566 171.99 28.8023 170.636 28.8023 169.01C28.8023 167.385 30.1566 166.031 31.7818 166.031H152.679C154.304 166.031 155.659 167.385 155.659 169.01C155.659 170.636 154.304 171.99 152.679 171.99Z" fill="#FF004D"/>
<path d="M114.758 170.545H69.7936C69.7936 162.6 76.2041 156.189 84.1496 156.189H100.402C108.347 156.189 114.758 162.6 114.758 170.545Z" fill="#FF004D"/>
<path d="M98.957 177.407H85.4136C82.3438 177.407 79.8157 174.879 79.8157 171.809V163.051H104.555V171.809C104.555 174.879 102.027 177.407 98.957 177.407Z" fill="#FF004D"/>
<path d="M95.3455 171.99H89.0252V309.862H95.3455V171.99Z" fill="#FF004D"/>
<path d="M36.4769 169.101C36.4769 171.99 34.1293 174.247 31.3304 174.247C28.5314 174.247 26.1839 171.9 26.1839 169.101C26.1839 166.302 28.5314 163.954 31.3304 163.954C34.1293 163.954 36.4769 166.302 36.4769 169.101Z" fill="#FF004D"/>
<path d="M31.3304 171.99C29.7955 171.99 28.5314 170.726 28.5314 169.191C28.5314 167.656 29.7955 166.392 31.3304 166.392C32.8653 166.392 34.1293 167.656 34.1293 169.191C34.1293 170.726 32.8653 171.99 31.3304 171.99Z" fill="#1D2B53"/>
<path d="M97.3318 169.101C97.3318 171.99 94.9843 174.247 92.1853 174.247C89.3864 174.247 87.0388 171.9 87.0388 169.101C87.0388 166.302 89.3864 163.954 92.1853 163.954C94.9843 163.954 97.3318 166.302 97.3318 169.101Z" fill="white"/>
<path d="M92.095 171.99C90.5601 171.99 89.2961 170.726 89.2961 169.191C89.2961 167.656 90.5601 166.392 92.095 166.392C93.63 166.392 94.894 167.656 94.894 169.191C94.894 170.726 93.63 171.99 92.095 171.99Z" fill="#1D2B53"/>
<path d="M176.786 226.344H126.224C125.863 226.344 125.592 226.163 125.412 225.893C125.231 225.622 125.231 225.261 125.412 224.99L150.693 170.094C150.873 169.733 151.144 169.552 151.505 169.552C151.867 169.552 152.228 169.733 152.318 170.094L177.599 224.99C177.689 225.261 177.689 225.622 177.599 225.893C177.418 226.163 177.148 226.344 176.786 226.344ZM127.669 224.538H175.342L151.505 172.893L127.669 224.538Z" fill="#1D2B53"/>
<path d="M122.523 222.642C123.245 237.991 135.976 250.18 151.505 250.18C167.035 250.18 179.766 237.901 180.488 222.642H122.523Z" fill="#1D2B53"/>
<path d="M156.652 169.101C156.652 171.99 154.304 174.247 151.505 174.247C148.706 174.247 146.359 171.9 146.359 169.101C146.359 166.302 148.706 163.954 151.505 163.954C154.304 163.954 156.652 166.302 156.652 169.101Z" fill="#FF004D"/>
<path d="M151.505 171.99C149.97 171.99 148.706 170.726 148.706 169.191C148.706 167.656 149.97 166.392 151.505 166.392C153.04 166.392 154.304 167.656 154.304 169.191C154.304 170.726 153.04 171.99 151.505 171.99Z" fill="#1D2B53"/>
<path d="M397.634 266.613L406.843 286.567L424.36 279.524C424.36 279.524 416.504 263.001 415.331 260.022C414.157 257.042 395.196 248.284 397.544 266.523L397.634 266.613Z" fill="#FEBE9A"/>
<path d="M422.915 275.552L404.496 283.317L405.128 288.644C405.128 288.644 396.46 289.005 392.578 295.415C388.695 301.645 390.501 307.333 393.661 309.771L433.118 293.971C433.118 293.971 425.262 278.622 423.005 275.642L422.915 275.552Z" fill="#1D2B53"/>
<path d="M357.816 149.418L396.28 157.273C401.426 172.17 402.329 200.702 404.225 221.739L424.269 270.766L397.182 283.407C384.361 261.557 373.617 243.68 370.547 233.477C366.304 219.482 357.004 183.095 357.004 183.095L357.726 149.508L357.816 149.418Z" fill="#1D2B53"/>
<path d="M339.849 124.137C357.636 107.614 356.552 90.7296 345.176 78.9017C334.973 68.2475 312.311 110.954 312.311 110.954L339.758 124.227L339.849 124.137Z" fill="#FF004D"/>
<path d="M302.198 112.941C302.198 112.941 296.329 108.878 294.253 119.261C292.176 129.554 311.317 145.896 327.208 138.944C343.099 131.901 348.697 116.101 348.697 116.101L337.501 108.607L317.096 114.656L302.198 113.031V112.941Z" fill="#FF004D"/>
<path d="M338.133 271.308L337.411 293.339H356.281C356.281 293.339 356.643 275.1 356.913 271.94C357.184 268.69 344.183 253.611 338.043 271.398L338.133 271.308Z" fill="#FEBE9A"/>
<path d="M340.932 144.181L327.479 159.169L332.084 285.032H361.879L372.895 147.612L340.932 144.181Z" fill="#1D2B53"/>
<path d="M356.733 289.005L336.779 289.366L334.973 294.512C334.973 294.512 327.028 291.623 320.617 296.047C314.297 300.381 313.394 306.34 315.11 309.771H357.636C357.636 309.771 357.636 292.616 356.823 288.914L356.733 289.005Z" fill="#1D2B53"/>
<path d="M324.5 167.385C324.5 167.385 328.563 91.3616 333.98 81.7909C337.592 75.3804 345.988 73.0329 351.767 71.2271C352.309 71.0465 352.76 70.9562 353.212 70.7756C355.198 70.1436 356.552 69.8727 356.552 69.8727L368.561 66.1709L375.152 69.0601C375.152 69.0601 376.235 69.4213 378.131 70.0533C378.402 70.1436 378.673 70.2339 378.944 70.3242C381.743 71.4077 385.806 73.0329 390.05 75.1095C399.801 79.8949 400.704 91.0004 398.627 121.338C397.092 144.271 401.787 166.211 401.787 166.211C402.058 176.143 346.35 179.123 324.5 167.205V167.385Z" fill="#FF004D"/>
<path d="M404.225 169.462C401.968 172.893 397.363 173.886 393.842 171.538L267.617 88.2918L275.834 75.8318L402.058 159.079C405.489 161.336 406.482 165.941 404.135 169.462H404.225Z" fill="#1D2B53"/>
<path d="M283.057 81.0686L275.292 92.8062C273.035 96.2372 268.43 97.1401 264.999 94.8829L259.491 91.2713L275.473 67.0738L280.98 70.6854C284.411 72.9426 285.314 77.5473 283.057 80.9783V81.0686Z" fill="#1D2B53"/>
<path d="M256.997 18.559L206.301 95.4444L242.934 119.6L293.631 42.7144L256.997 18.559Z" fill="#1D2B53"/>
<path d="M236.616 41.9508L219.667 67.6547C217.691 70.652 218.519 74.684 221.516 76.6604L254.305 98.281C257.303 100.257 261.335 99.4298 263.311 96.4324L280.26 70.7286C282.236 67.7312 281.409 63.6992 278.411 61.7228L245.622 40.1022C242.624 38.1258 238.592 38.9535 236.616 41.9508Z" fill="#FF004D"/>
<path d="M246.129 119.983C244.594 122.331 241.433 122.963 238.996 121.428L206.221 99.8488C203.873 98.3139 203.241 95.1537 204.776 92.7159C206.311 90.3684 209.471 89.7364 211.909 91.2713L244.684 112.85C247.031 114.385 247.663 117.545 246.129 119.983Z" fill="#FF004D"/>
<path d="M296.058 44.4112C294.524 46.7587 291.363 47.3907 288.926 45.8558L256.151 24.2767C253.803 22.7417 253.171 19.5816 254.706 17.1438C256.241 14.7963 259.401 14.1643 261.839 15.6992L294.614 37.2783C296.961 38.8132 297.593 41.9734 296.058 44.4112Z" fill="#FF004D"/>
<path d="M355.379 108.607C351.767 96.2372 350.413 83.7773 352.218 71.1368C352.58 71.0465 352.941 70.9562 353.212 70.8659C355.198 70.2339 356.552 69.963 356.552 69.963L368.561 66.2612L375.152 69.1504C375.152 69.1504 376.235 69.5116 378.131 70.1436C378.402 70.2339 378.673 70.3242 378.944 70.4145C378.944 70.4145 378.944 70.4145 379.034 70.4145C369.283 82.423 361.518 95.1537 355.379 108.517V108.607Z" fill="white"/>
<path d="M382.104 44.5015C382.104 44.5015 398.898 25.9019 380.93 18.137C383.549 12.9905 378.944 9.7401 373.436 11.275C373.436 11.275 357.636 -3.35185 343.46 4.68389C333.258 10.4624 336.779 19.3108 336.779 19.3108C332.445 19.0399 332.084 38.7229 347.523 41.7025C357.636 43.6889 382.104 44.4112 382.104 44.4112V44.5015Z" fill="#1D2B53"/>
<path d="M369.102 65.0874L356.462 69.963L359.351 78.1794L374.971 69.963L369.102 65.0874Z" fill="#FEBE9A"/>
<path d="M376.867 43.0568C376.867 43.0568 375.423 57.5031 374.971 69.963L363.143 71.5882L356.462 69.963C356.462 69.963 356.462 69.4213 356.552 68.6087C356.823 64.8166 357.816 53.8915 360.164 45.4044C360.344 44.5918 360.615 43.9597 360.976 43.2374C365.039 35.2017 376.867 43.1471 376.867 43.1471V43.0568Z" fill="#FEBE9A"/>
<path d="M356.462 69.963C356.462 69.963 356.462 69.4213 356.552 68.6087C356.733 65.7194 357.365 58.9478 358.629 52.1761L370.547 53.9818C370.547 53.9818 372.804 64.636 356.552 70.0533L356.462 69.963Z" fill="#EB7F58"/>
<path d="M339.758 30.4163C338.043 35.8337 337.411 47.7519 338.856 51.3634C341.203 57.5934 345.988 64.1845 357.184 63.9137C368.38 63.6428 372.443 57.5934 375.242 54.2527C376.506 52.7178 377.77 42.9665 377.77 42.9665C373.617 40.3482 370.547 34.8405 374.7 29.9649C379.215 23.7349 350.232 11.0944 339.758 30.4163Z" fill="#FEBE9A"/>
<path d="M371.089 44.5917C371.089 44.5917 376.867 32.8541 383.91 37.6395C389.688 41.6122 386.799 55.2459 373.256 53.711C363.143 52.5372 371.089 44.5917 371.089 44.5917Z" fill="#FEBE9A"/>
<path d="M377.319 44.4112C377.319 44.4112 378.944 39.8064 382.465 42.4248C385.535 44.682 381.292 51.6343 376.958 51.0023L377.319 44.5015V44.4112Z" fill="#EB7F58"/>
<path d="M355.017 128.47C343.822 124.046 344.724 120.164 347.614 120.435C350.413 120.706 355.017 122.06 358.177 122.963C359.532 123.324 360.435 123.595 361.608 124.137C359.803 127.026 355.108 128.47 355.108 128.47H355.017Z" fill="#FEBE9A"/>
<path d="M414.337 131.992C418.671 143.097 398.537 149.688 370.096 141.472L367.026 128.651C398.808 122.511 410.906 123.324 414.337 132.082V131.992Z" fill="#FEBE9A"/>
<path d="M341.564 126.123C346.44 128.651 351.677 129.915 355.017 128.47C355.017 128.47 359.803 127.026 361.518 124.137C362.963 124.859 364.678 126.123 368.019 129.012C383.91 137.861 370.728 140.66 370.728 140.66C370.728 140.66 359.08 143.368 351.767 142.375C344.454 141.382 341.203 137.861 342.738 135.332C342.738 135.332 338.946 133.436 339.217 130.637C336.147 129.193 336.598 123.595 341.564 126.123Z" fill="#FEBE9A"/>
<path d="M375.423 145.896C365.13 149.147 369.825 126.755 369.825 126.755L383.82 122.511L380.118 97.7721C380.118 97.7721 380.389 81.7909 389.237 76.6444C402.239 69.0602 421.199 126.845 413.254 140.66C407.656 150.411 375.423 145.806 375.423 145.806V145.896Z" fill="#FF004D"/>
<path d="M352.76 97.6818C353.844 93.8897 354.837 90.1878 355.469 87.0277C354.205 85.9442 353.573 84.319 353.934 82.6035C354.476 80.1657 356.643 80.3463 359.08 80.888C361.608 81.5201 363.505 82.3327 362.963 84.6802C362.602 86.0345 361.699 87.118 360.435 87.6597C360.435 91.2713 360.435 94.8829 360.344 98.3139C358.539 101.655 356.823 105.086 355.198 108.607C354.114 104.995 353.302 101.293 352.67 97.6818H352.76Z" fill="#1D2B53"/>
<path d="M295.607 112.67C296.329 116.281 304.907 123.234 308.609 122.421C315.742 120.886 318.089 111.857 315.742 110.413C313.394 108.878 311.588 111.135 311.588 111.135C311.588 106.62 306.261 108.878 306.261 108.878C306.893 105.086 303.282 104.363 301.566 105.898C300.392 100.661 294.433 106.62 295.697 112.67H295.607Z" fill="#FEBE9A"/>
<path d="M437 308.417H0V309.862H437V308.417Z" fill="#1D2B53"/>
<path d="M138.594 58.406C137.691 57.8643 136.698 57.2323 135.795 56.6905C135.795 54.7944 135.705 52.8984 135.253 51.0926C136.517 50.0091 137.781 48.8354 138.955 47.6616C137.42 44.682 135.795 41.7025 134.26 38.7229C132.635 39.0841 130.919 39.4453 129.294 39.8967C128.03 38.5424 126.586 37.2783 124.96 36.2851C125.051 34.5696 125.141 32.9444 125.231 31.2289L115.57 28.2494C114.667 29.694 113.764 31.0484 112.862 32.5833C110.965 32.5833 109.069 32.6736 107.264 33.125C106.18 31.861 105.006 30.5969 103.833 29.4232L94.894 34.1182C95.2552 35.7434 95.6163 37.4589 96.0678 39.0841C94.7134 40.3482 93.4494 41.7928 92.4562 43.418C90.7407 43.3277 89.1155 43.2374 87.4 43.1471L84.4205 52.8081C85.8651 53.711 87.2194 54.6139 88.7543 55.5168C88.7543 57.4128 88.8446 59.3089 89.2961 61.1147C88.2126 62.0176 87.1291 63.0108 86.136 64.0039C85.9554 64.1845 85.7748 64.3651 85.5942 64.5457L90.2893 73.4843C91.9145 73.1232 93.63 72.762 95.2552 72.3106C96.5192 73.6649 97.9639 74.9289 99.5891 75.9221C99.4988 77.6376 99.4085 79.2628 99.3182 80.9783L108.979 83.9579C109.882 82.5132 110.785 81.1589 111.688 79.624C113.584 79.624 115.48 79.5337 117.286 79.0822C118.369 80.3463 119.543 81.6104 120.717 82.7841C123.696 81.2492 126.676 79.624 129.655 78.0891C129.294 76.4639 128.933 74.7484 128.482 73.1232C129.836 71.8591 131.1 70.4145 132.093 68.7893C133.809 68.8796 135.434 68.9699 137.149 69.0601L140.129 59.3992C139.587 59.038 139.136 58.7672 138.594 58.406ZM123.335 59.4895C121.439 65.6292 114.938 69.0601 108.799 67.1641C102.659 65.268 99.2279 58.7672 101.124 52.6275C103.02 46.4878 109.521 43.0568 115.661 44.9529C121.8 46.849 125.231 53.3498 123.335 59.4895Z" fill="#FF004D"/>
<path d="M155.207 17.0535C154.756 16.7827 154.304 16.5118 153.853 16.2409C153.853 15.338 153.853 14.4351 153.582 13.5322C154.214 12.9905 154.756 12.4488 155.388 11.907C154.666 10.4624 153.853 9.01778 153.131 7.57315C152.318 7.75373 151.505 7.93431 150.783 8.11489C150.151 7.48287 149.429 6.85084 148.706 6.39939C148.706 5.58679 148.797 4.77418 148.797 3.96158L144.192 2.51695C143.74 3.14898 143.289 3.87129 142.928 4.59361C142.025 4.59361 141.122 4.59361 140.219 4.86447C139.677 4.23245 139.136 3.69071 138.594 3.05869L134.26 5.31592C134.441 6.12852 134.621 6.94113 134.802 7.66345C134.17 8.29547 133.538 9.01778 133.086 9.74009C132.274 9.74009 131.461 9.64981 130.649 9.64981L129.204 14.2546C129.836 14.706 130.558 15.1575 131.281 15.5186C131.281 16.4215 131.281 17.3244 131.551 18.2273C131.01 18.6787 130.558 19.1302 130.017 19.5816C129.926 19.5816 129.836 19.7622 129.746 19.8525L132.003 24.1864C132.815 24.0058 133.628 23.8252 134.35 23.6446C134.982 24.2767 135.705 24.9087 136.427 25.3601C136.427 26.1727 136.337 26.9853 136.337 27.7979L140.942 29.2426C141.393 28.6105 141.844 27.8882 142.206 27.1659C143.108 27.1659 144.011 27.1659 144.914 26.8951C145.456 27.5271 145.998 28.0688 146.539 28.7008C147.984 27.9785 149.429 27.1659 150.873 26.4436C150.693 25.631 150.512 24.8184 150.332 24.0961C150.964 23.4641 151.596 22.7417 152.047 22.0194C152.86 22.0194 153.672 22.1097 154.485 22.1097L155.93 17.505C155.659 17.3244 155.478 17.2341 155.207 17.0535ZM147.894 17.505C146.991 20.4845 143.831 22.1097 140.942 21.2068C137.962 20.3039 136.337 17.1438 137.24 14.2546C138.143 11.275 141.303 9.64981 144.192 10.5527C147.171 11.4556 148.797 14.6157 147.894 17.5953V17.505Z" fill="#FF004D"/>
<path d="M428.874 198.625C431.317 198.625 433.298 196.644 433.298 194.201C433.298 191.758 431.317 189.777 428.874 189.777C426.431 189.777 424.45 191.758 424.45 194.201C424.45 196.644 426.431 198.625 428.874 198.625Z" fill="white"/>
<path d="M11.6473 135.603C11.6473 138.222 9.57066 140.298 6.95227 140.298C4.33388 140.298 2.25723 138.222 2.25723 135.603C2.25723 132.985 4.33388 130.908 6.95227 130.908C9.57066 130.908 11.6473 132.985 11.6473 135.603Z" fill="white"/>
<path d="M289.919 10.4624C291.465 10.4624 292.718 9.20927 292.718 7.66345C292.718 6.11762 291.465 4.86447 289.919 4.86447C288.373 4.86447 287.12 6.11762 287.12 7.66345C287.12 9.20927 288.373 10.4624 289.919 10.4624Z" fill="white"/>
</svg>
