<svg width="484" height="299" viewBox="0 0 484 299" fill="none" xmlns="http://www.w3.org/2000/svg">
<g clip-path="url(#clip0_115_1770)">
<path d="M79.5559 135.62V51.8718C79.5559 50.6758 79.9968 49.5288 80.7815 48.6831C81.5662 47.8374 82.6305 47.3623 83.7403 47.3623C84.8501 47.3623 85.9144 47.8374 86.6991 48.6831C87.4838 49.5288 87.9247 50.6758 87.9247 51.8718V135.62C87.9247 136.816 87.4838 137.963 86.6991 138.809C85.9144 139.654 84.8501 140.129 83.7403 140.129C82.6305 140.129 81.5662 139.654 80.7815 138.809C79.9968 137.963 79.5559 136.816 79.5559 135.62Z" fill="#F0F0F0"/>
<path d="M69.5432 135.62V51.8718C69.5432 50.6758 69.9841 49.5288 70.7688 48.6831C71.5535 47.8374 72.6178 47.3623 73.7276 47.3623C74.8374 47.3623 75.9017 47.8374 76.6864 48.6831C77.4711 49.5288 77.912 50.6758 77.912 51.8718V135.62C77.912 136.816 77.4711 137.963 76.6864 138.809C75.9017 139.654 74.8374 140.129 73.7276 140.129C72.6178 140.129 71.5535 139.654 70.7688 138.809C69.9841 137.963 69.5432 136.816 69.5432 135.62Z" fill="#F0F0F0"/>
<path d="M59.5305 135.62V51.8718C59.5305 50.6758 59.9714 49.5288 60.7561 48.6831C61.5408 47.8374 62.6051 47.3623 63.7149 47.3623C64.8247 47.3623 65.889 47.8374 66.6737 48.6831C67.4584 49.5288 67.8993 50.6758 67.8993 51.8718V135.62C67.8993 136.816 67.4584 137.963 66.6737 138.809C65.889 139.654 64.8247 140.129 63.7149 140.129C62.6051 140.129 61.5408 139.654 60.7561 138.809C59.9714 137.963 59.5305 136.816 59.5305 135.62Z" fill="#F0F0F0"/>
<path d="M437.563 269.382C435.878 269.384 434.205 269.071 432.619 268.458L432.375 268.363L432.487 267.779C429.647 261.595 430.64 253.122 435.03 246.155C439.021 239.821 445.09 235.217 450.444 231.155C451.123 230.639 451.93 230.355 452.761 230.338C453.591 230.321 454.408 230.572 455.105 231.059C455.802 231.545 456.349 232.246 456.673 233.07C456.998 233.894 457.087 234.804 456.928 235.683L455.013 246.27C453.632 253.907 451.988 261.136 447.113 265.644C444.435 268.058 441.055 269.382 437.563 269.382Z" fill="#E6E6E6"/>
<path d="M450.102 287.677C448.248 287.665 446.426 287.154 444.801 286.19C443.176 285.227 441.801 283.841 440.799 282.159L440.66 281.926L440.991 281.611C441.848 276.575 445.877 272.087 451.286 270.157C456.203 268.403 461.631 268.69 466.417 268.942C467.049 268.975 467.658 269.21 468.167 269.617C468.675 270.023 469.06 270.583 469.273 271.226C469.486 271.869 469.517 272.565 469.362 273.227C469.207 273.888 468.873 274.486 468.403 274.943L463.019 280.181C459.106 283.986 455.203 287.422 450.496 287.668C450.365 287.674 450.233 287.677 450.102 287.677Z" fill="#E6E6E6"/>
<path d="M433.392 293.276C432.597 286.895 431.779 280.432 432.337 273.982C432.832 268.254 434.418 262.66 437.647 258.073C439.353 255.65 441.439 253.568 443.811 251.92C444.427 251.491 444.994 252.567 444.381 252.994C440.27 255.87 437.108 260.073 435.347 265.002C433.38 270.513 433.065 276.521 433.404 282.375C433.609 285.916 434.043 289.433 434.481 292.945C434.516 293.103 434.495 293.269 434.422 293.411C434.349 293.552 434.229 293.659 434.086 293.711C434.014 293.731 433.939 293.737 433.865 293.726C433.791 293.715 433.72 293.689 433.655 293.649C433.591 293.608 433.534 293.555 433.489 293.491C433.444 293.427 433.411 293.354 433.392 293.276Z" fill="#F2F2F2"/>
<path d="M431.144 296.944C434.972 289.483 439.411 281.192 447.343 278.541C449.546 277.807 451.86 277.544 454.157 277.766C454.88 277.835 454.699 279.063 453.977 278.995C450.12 278.646 446.272 279.767 443.104 282.164C440.038 284.463 437.651 287.66 435.631 291.049C434.393 293.125 433.285 295.29 432.176 297.451C431.822 298.142 430.786 297.643 431.144 296.944Z" fill="#F2F2F2"/>
<path d="M429.422 296.835L433.287 296.931L409.986 162.78L406.121 163.565L412.206 198.365H392.603L398.687 163.565L394.823 162.78L371.716 296.931L375.386 296.835L387.534 227.355H417.274L429.422 296.835ZM388.435 222.201L391.702 203.519H413.107L416.373 222.201H388.435Z" fill="#CACACA"/>
<path d="M260.68 137.757V93.7018C260.68 92.3937 262.557 91.3296 264.865 91.3296C267.172 91.3296 269.049 92.3937 269.049 93.7018V137.757C269.049 139.065 267.172 140.129 264.865 140.129C262.557 140.129 260.68 139.065 260.68 137.757Z" fill="#F0F0F0"/>
<path d="M250.668 137.757V93.7018C250.668 92.3937 252.545 91.3296 254.852 91.3296C257.159 91.3296 259.036 92.3937 259.036 93.7018V137.757C259.036 139.065 257.159 140.129 254.852 140.129C252.545 140.129 250.668 139.065 250.668 137.757Z" fill="#F0F0F0"/>
<path d="M240.655 137.757V93.7018C240.655 92.3937 242.532 91.3296 244.839 91.3296C247.147 91.3296 249.024 92.3937 249.024 93.7018V137.757C249.024 139.065 247.147 140.129 244.839 140.129C242.532 140.129 240.655 139.065 240.655 137.757Z" fill="#F0F0F0"/>
<path d="M324.889 105.359C324.871 105.225 324.826 105.097 324.759 104.983C324.691 104.868 324.602 104.771 324.497 104.696L292.951 82.2525C293.426 82.0387 293.824 81.6634 294.083 81.1836C294.398 80.5913 294.483 79.8886 294.319 79.229C294.155 78.5695 293.756 78.0067 293.208 77.6636L290.62 76.053C290.07 75.7133 289.418 75.6219 288.806 75.7986C288.194 75.9753 287.672 76.4059 287.354 76.9962C287.181 77.3206 287.078 77.682 287.051 78.0545L264.279 61.8536C263.514 59.8575 262.355 58.0652 260.882 56.6015C259.409 55.1377 257.657 54.0377 255.749 53.3782V46.2349H247.38V53.3782C244.603 54.335 242.181 56.2179 240.462 58.7551C238.743 61.2922 237.816 64.3524 237.816 67.494V69.4267H246.184C246.184 70.9644 246.751 72.4391 247.76 73.5264C248.769 74.6138 250.138 75.2246 251.564 75.2246C252.991 75.2246 254.36 74.6138 255.369 73.5264C256.378 72.4391 256.944 70.9644 256.944 69.4267H265.313V67.494C265.312 66.5675 265.231 65.6432 265.071 64.733L322.678 105.718L298.748 137.072C298.562 137.071 298.378 137.069 298.19 137.069C296.281 137.069 294.431 137.118 292.669 137.202C292.775 136.883 292.821 136.545 292.805 136.207C292.77 135.526 292.487 134.886 292.016 134.429C291.545 133.972 290.926 133.734 290.293 133.768L287.308 133.936C286.676 133.973 286.083 134.279 285.658 134.786C285.234 135.294 285.014 135.961 285.045 136.643C285.067 137.046 285.178 137.437 285.369 137.785C280.091 138.389 276.671 139.222 276.671 139.646C276.671 140.341 285.854 139.68 297.349 139.648C297.402 139.809 297.493 139.952 297.614 140.062C297.735 140.173 297.881 140.246 298.037 140.276C298.193 140.305 298.354 140.29 298.503 140.23C298.651 140.171 298.782 140.07 298.883 139.938L299.104 139.648C310.565 139.682 319.71 140.339 319.71 139.646C319.71 138.993 311.579 137.367 301.044 137.106L324.696 106.116C324.775 106.012 324.834 105.89 324.867 105.76C324.901 105.629 324.908 105.493 324.889 105.359Z" fill="#CCCCCC"/>
<path d="M325.752 297.157H252.097C250.609 297.156 249.182 296.517 248.129 295.383C247.077 294.249 246.485 292.711 246.483 291.107V160.836C246.482 159.403 245.953 158.028 245.012 157.015C244.072 156.002 242.797 155.431 241.467 155.43H69.1799C67.85 155.431 66.5749 156.002 65.6344 157.015C64.694 158.028 64.1649 159.403 64.1634 160.836V291.107C64.1617 292.711 63.5696 294.249 62.5171 295.383C61.4646 296.517 60.0376 297.156 58.5491 297.157H56.029C54.5405 297.156 53.1134 296.517 52.0609 295.383C51.0084 294.249 50.4164 292.711 50.4147 291.107V153.819C50.4187 149.976 51.837 146.292 54.3584 143.575C56.8799 140.857 60.2986 139.329 63.8645 139.324H317.917C321.483 139.329 324.901 140.857 327.423 143.575C329.944 146.292 331.363 149.976 331.367 153.819V291.107C331.365 292.711 330.773 294.249 329.72 295.383C328.668 296.517 327.241 297.156 325.752 297.157Z" fill="#E4E4E4"/>
<path d="M331.068 173.146H246.782V177.011H331.068V173.146Z" fill="white"/>
<path d="M331.068 225.327H246.782V229.192H331.068V225.327Z" fill="white"/>
<path d="M177.013 138.688L174.59 137.589L172.928 124.501H150.799L148.998 137.535L146.83 138.703C146.727 138.759 146.643 138.851 146.594 138.964C146.545 139.077 146.533 139.205 146.56 139.327C146.586 139.448 146.65 139.556 146.741 139.634C146.832 139.712 146.945 139.754 147.06 139.754H176.813C176.932 139.754 177.047 139.709 177.139 139.628C177.231 139.547 177.294 139.434 177.317 139.309C177.341 139.183 177.323 139.053 177.268 138.94C177.212 138.827 177.122 138.738 177.013 138.688Z" fill="#E6E6E6"/>
<path d="M216.338 126.243H107.632C107.061 126.241 106.515 125.996 106.112 125.561C105.709 125.126 105.483 124.536 105.483 123.922V107.402H218.487V123.922C218.487 124.536 218.261 125.126 217.858 125.561C217.455 125.996 216.909 126.241 216.338 126.243Z" fill="#CCCCCC"/>
<path d="M218.601 115.209H105.384V44.5233C105.384 43.7815 105.658 43.0703 106.145 42.5458C106.632 42.0212 107.292 41.7262 107.98 41.7253H216.005C216.693 41.7262 217.353 42.0212 217.839 42.5458C218.326 43.0703 218.6 43.7815 218.601 44.5233V115.209Z" fill="#3F3D56"/>
<path d="M211.839 110.079H112.146C111.615 110.078 111.106 109.851 110.731 109.447C110.356 109.042 110.145 108.494 110.144 107.922V49.0129C110.145 48.441 110.356 47.8927 110.731 47.4883C111.106 47.0838 111.615 46.8564 112.146 46.8557H211.839C212.37 46.8564 212.878 47.0838 213.254 47.4883C213.629 47.8927 213.84 48.441 213.84 49.0129V107.922C213.84 108.494 213.629 109.042 213.254 109.447C212.878 109.851 212.37 110.078 211.839 110.079Z" fill="white"/>
<path d="M323.597 53.6185C324.55 53.4704 325.522 53.5495 326.445 53.8501C327.367 54.1507 328.217 54.6656 328.934 55.3585C329.652 56.0514 330.22 56.9055 330.598 57.8605C330.976 58.8155 331.156 59.8483 331.123 60.8861L352.981 69.9531L343.078 77.5781L323.84 67.7989C322.226 67.625 320.727 66.8191 319.627 65.5338C318.528 64.2485 317.904 62.5732 317.874 60.8252C317.844 59.0773 318.41 57.3782 319.465 56.05C320.519 54.7217 321.99 53.8566 323.597 53.6185Z" fill="#9E616A"/>
<path d="M406.59 49.1675L410.288 56.4128C409.394 61.0083 407.085 65.1429 403.734 68.1445C398.073 73.2903 368.471 92.455 368.471 92.455L331.1 72.2361L337.637 62.8736L366.977 73.4704C377.861 62.3943 390.995 54.2114 405.333 49.574L406.59 49.1675Z" fill="#E4E4E4"/>
<path d="M399.714 169.059C415.822 169.059 428.88 164.474 428.88 158.817C428.88 153.161 415.822 148.575 399.714 148.575C383.606 148.575 370.548 153.161 370.548 158.817C370.548 164.474 383.606 169.059 399.714 169.059Z" fill="#CACACA"/>
<path d="M334.283 288.156L326.539 285.849L331.11 252.557L342.541 255.963L334.283 288.156Z" fill="#9E616A"/>
<path d="M334.183 296.835L309.211 289.396L309.298 289.055C310.011 286.277 311.719 283.918 314.045 282.496C316.372 281.075 319.127 280.708 321.705 281.475L321.705 281.476L336.958 286.019L334.183 296.835Z" fill="#2F2E41"/>
<path d="M311.829 288.264L304.478 284.766L313.5 252.548L324.348 257.71L311.829 288.264Z" fill="#9E616A"/>
<path d="M310.557 296.835L286.856 285.556L286.989 285.233C288.069 282.597 290.077 280.531 292.571 279.489C295.065 278.448 297.84 278.517 300.287 279.681L300.287 279.681L314.763 286.57L310.557 296.835Z" fill="#2F2E41"/>
<path d="M422.412 133.777C422.412 133.777 426.308 146.786 402.404 163.237L371.618 196.298L339.63 278.761L320.639 269.586L324.364 258.871L326.863 251.681L328.142 248.003L329.513 244.06L349.844 185.574L366.922 153.348L367.417 135.861L371.618 123.535L402.095 111.881L422.412 133.777Z" fill="#2F2E41"/>
<path d="M406.87 134.421C406.87 134.421 410.766 147.43 386.862 163.881L356.076 196.942L324.088 279.405L305.097 270.23L308.822 259.515L311.321 252.326L312.6 248.647L313.971 244.704L334.302 186.218L340.02 175.428C347.564 161.193 356.73 148.032 367.306 136.25L372.912 130.005L373.51 120.342L386.553 112.525L406.87 134.421Z" fill="#2F2E41"/>
<path d="M388.454 70.7369L398.018 48.8336L414.709 46.3799C414.709 46.3799 427.742 64.2743 424.32 89.4192C423.037 98.8485 421.991 108.236 421.929 116.476C421.912 118.669 423.692 119.648 423.722 121.63C423.752 123.577 420.349 126.749 421.331 128.072C422.736 129.896 423.572 132.15 423.722 134.514C422.538 137.553 386.687 121.093 371.618 123.535L388.454 70.7369Z" fill="#E4E4E4"/>
<path d="M412.16 35.3528C416.421 27.629 414.064 17.6457 406.897 13.0544C399.731 8.46304 390.467 11.0024 386.207 18.7261C381.946 26.4498 384.303 36.4332 391.469 41.0245C398.636 45.6158 407.9 43.0765 412.16 35.3528Z" fill="#9E616A"/>
<path d="M408.835 21.1978C408.806 21.6259 408.766 22.1928 408.72 22.8343C408.673 24.5902 409.133 26.3187 410.035 27.7818C410.879 29.3211 409.871 38.618 409.871 38.618C434.6 20.0412 415.061 1.37786 407.417 3.0369C407.577 0.674478 401.343 1.61036 401.343 1.61036C398.968 -2.37594 393.763 2.91554 393.763 2.91554L394.767 1.09438C390.726 2.20226 386.731 15.6636 386.731 15.6636C388.102 21.4709 408.995 18.8353 408.835 21.1978Z" fill="#2F2E41"/>
<path d="M312.905 79.3531C321.402 67.1717 328.12 53.6605 332.824 39.2886C333.097 38.429 333.078 37.493 332.77 36.6473C332.462 35.8015 331.886 35.101 331.143 34.6703L302.065 17.8787C301.594 17.605 301.072 17.4506 300.538 17.4272C300.004 17.4038 299.472 17.5121 298.982 17.7438C298.483 17.9773 298.041 18.3303 297.688 18.7759C297.335 19.2216 297.081 19.7481 296.946 20.3154C293.561 34.1645 287.199 46.9606 278.374 57.6683C278.011 58.1041 277.745 58.6235 277.596 59.187C277.447 59.7505 277.42 60.3431 277.515 60.9198C277.607 61.4873 277.818 62.0248 278.132 62.4911C278.446 62.9575 278.855 63.3405 279.327 63.611L308.406 80.4027C309.149 80.8301 310.01 80.9592 310.834 80.767C311.658 80.5748 312.392 80.0738 312.905 79.3531Z" fill="#CCCCCC"/>
<path d="M310.92 77.7461C310.764 77.9565 310.544 78.1015 310.299 78.156C310.054 78.2105 309.799 78.1712 309.578 78.0448L280.499 61.2528C280.358 61.1735 280.236 61.06 280.142 60.9212C280.049 60.7824 279.986 60.6222 279.959 60.453C279.929 60.2743 279.938 60.0906 279.984 59.9161C280.031 59.7416 280.115 59.5811 280.228 59.4472C289.313 48.4241 295.863 35.251 299.347 20.9938C299.387 20.8176 299.465 20.6539 299.573 20.5155C299.682 20.377 299.819 20.2676 299.974 20.1958C300.12 20.1256 300.278 20.0927 300.438 20.0998C300.597 20.1069 300.753 20.1538 300.893 20.2367L329.971 37.0282C330.191 37.1565 330.363 37.3637 330.457 37.6139C330.55 37.8642 330.56 38.1418 330.484 38.3988C325.863 52.5134 319.266 65.7828 310.92 77.7461Z" fill="white"/>
<path d="M300.747 36.1903L320.804 48.8596C322.799 50.1201 324.606 46.7805 322.614 45.522L302.557 32.8527C300.562 31.5922 298.755 34.9318 300.747 36.1903Z" fill="#FF004D"/>
<path d="M297.16 43.2768L317.217 55.946C319.212 57.2065 321.02 53.867 319.027 52.6084L298.971 39.9391C296.975 38.6786 295.168 42.0182 297.16 43.2768Z" fill="#FF004D"/>
<path d="M292.976 51.0075L313.033 63.6767C315.028 64.9372 316.835 61.5977 314.843 60.3391L294.786 47.6699C292.791 46.4093 290.984 49.7489 292.976 51.0075Z" fill="#FF004D"/>
<path d="M288.792 57.4496L308.848 70.1189C310.844 71.3794 312.651 68.0398 310.658 66.7813L290.602 54.112C288.606 52.8515 286.799 56.1911 288.792 57.4496Z" fill="#FF004D"/>
<path d="M380.224 131.972L387.753 150.219C387.935 150.656 388.013 151.135 387.979 151.612C387.946 152.089 387.803 152.55 387.563 152.953C387.28 153.434 386.871 153.815 386.388 154.046C385.905 154.278 385.37 154.35 384.849 154.254C384.671 154.225 384.497 154.174 384.33 154.105C383.664 153.828 383.128 153.278 382.837 152.575L375.308 134.327C375.164 133.98 375.086 133.605 375.077 133.224C375.067 132.843 375.128 132.465 375.255 132.109C375.511 131.392 376.021 130.813 376.673 130.501C377.324 130.188 378.065 130.168 378.731 130.444C379.397 130.719 379.934 131.269 380.224 131.972Z" fill="#FF004D"/>
<path d="M387.146 148.748L388.655 152.43L389.426 157.652C389.477 157.995 389.421 158.348 389.267 158.654C389.113 158.96 388.869 159.202 388.574 159.344C388.279 159.485 387.949 159.518 387.635 159.436C387.321 159.354 387.041 159.163 386.838 158.892L383.717 154.706L382.23 151.103L387.146 148.748Z" fill="#3F3D56"/>
<path d="M373.634 126.895L374.713 134.2C374.749 134.439 374.835 134.666 374.964 134.864C375.094 135.062 375.264 135.225 375.462 135.34C375.659 135.456 375.879 135.521 376.103 135.53C376.328 135.54 376.552 135.494 376.757 135.395L377.827 134.883L379.891 139.886C379.956 140.042 380.075 140.164 380.223 140.225C380.371 140.286 380.535 140.281 380.68 140.212C380.825 140.143 380.938 140.014 380.995 139.855C381.052 139.696 381.048 139.519 380.984 139.363L378.919 134.359L379.989 133.846C380.343 133.676 380.621 133.362 380.761 132.971C380.901 132.581 380.891 132.147 380.735 131.764C380.683 131.637 380.615 131.518 380.534 131.411L376.223 125.654C376.02 125.383 375.74 125.192 375.426 125.11C375.112 125.029 374.782 125.061 374.487 125.203C374.191 125.344 373.948 125.587 373.794 125.893C373.64 126.199 373.584 126.551 373.634 126.895Z" fill="#3F3D56"/>
<path d="M376.758 140.081C376.928 139.058 377.303 138.089 377.858 137.24C378.413 136.391 379.134 135.684 379.97 135.168C380.806 134.652 381.737 134.34 382.698 134.253C383.658 134.167 384.624 134.309 385.528 134.668L400.392 115.162L403.991 127.692L389.324 144.294C388.663 145.89 387.482 147.17 386.003 147.89C384.525 148.611 382.853 148.722 381.305 148.202C379.756 147.683 378.437 146.569 377.599 145.073C376.761 143.576 376.462 141.799 376.758 140.081Z" fill="#9E616A"/>
<path d="M395.471 138.813L388.924 128.622L407.514 101.909L397.938 79.7935L398.635 53.4868L406.549 51.9114L406.647 51.9645C410.494 54.3512 413.468 58.0845 415.075 62.5443C417.049 67.8631 421.456 87.8301 423.908 99.2583C424.389 101.473 424.337 103.784 423.755 105.97C423.173 108.157 422.081 110.146 420.584 111.749L395.471 138.813Z" fill="#E4E4E4"/>
<path d="M211.141 89.5702C211.086 90.0651 211.068 90.564 211.087 91.062L177.568 117.342L168.359 112.95L160.393 127.061L175.993 136.543C177.254 137.309 178.711 137.614 180.145 137.412C181.58 137.209 182.915 136.511 183.95 135.421L217.686 99.9101C219.412 100.383 221.232 100.278 222.902 99.6093C224.572 98.9406 226.014 97.7398 227.035 96.1665C228.056 94.5932 228.609 92.7221 228.62 90.8021C228.63 88.882 228.098 87.004 227.094 85.4178C226.09 83.8316 224.662 82.6124 222.999 81.9224C221.337 81.2324 219.518 81.1043 217.787 81.555C216.055 82.0058 214.491 83.0141 213.304 84.4459C212.117 85.8776 211.362 87.665 211.141 89.5702Z" fill="#FFB6B6"/>
<path d="M176.484 118.303L166.709 135.856C166.431 136.356 166.056 136.785 165.611 137.114C165.165 137.443 164.658 137.665 164.126 137.765C163.593 137.864 163.047 137.838 162.524 137.69C162.002 137.541 161.515 137.273 161.097 136.903L146.462 123.95C144.1 122.401 142.403 119.907 141.745 117.013C141.086 114.119 141.519 111.061 142.949 108.511C144.378 105.96 146.688 104.124 149.372 103.406C152.055 102.688 154.893 103.146 157.264 104.679L174.701 112.473C175.2 112.697 175.649 113.033 176.016 113.46C176.384 113.888 176.662 114.395 176.831 114.948C177 115.501 177.057 116.087 176.997 116.666C176.937 117.245 176.762 117.803 176.484 118.303Z" fill="#FF004D"/>
<path d="M134.602 270.877H153.762V236.659H134.602V270.877Z" fill="#CACACA"/>
<path d="M152.802 254.765L150.343 258.67L196.327 292.298L198.786 288.393L152.802 254.765Z" fill="#CACACA"/>
<path d="M135.563 254.765L89.5785 288.393L92.0377 292.298L138.022 258.671L135.563 254.765Z" fill="#CACACA"/>
<path d="M197.557 296.835C200.882 296.835 203.578 293.93 203.578 290.346C203.578 286.761 200.882 283.856 197.557 283.856C194.231 283.856 191.535 286.761 191.535 290.346C191.535 293.93 194.231 296.835 197.557 296.835Z" fill="#CACACA"/>
<path d="M143.909 296.835C147.234 296.835 149.93 293.93 149.93 290.346C149.93 286.761 147.234 283.856 143.909 283.856C140.583 283.856 137.887 286.761 137.887 290.346C137.887 293.93 140.583 296.835 143.909 296.835Z" fill="#CACACA"/>
<path d="M90.8081 296.835C94.1338 296.835 96.8298 293.93 96.8298 290.346C96.8298 286.761 94.1338 283.856 90.8081 283.856C87.4824 283.856 84.7864 286.761 84.7864 290.346C84.7864 293.93 87.4824 296.835 90.8081 296.835Z" fill="#CACACA"/>
<path d="M146.098 256.718H141.719V290.345H146.098V256.718Z" fill="#CACACA"/>
<path d="M140.077 251.998H148.288V206.571H140.077V251.998Z" fill="#CACACA"/>
<path d="M120.643 213.65V203.031C120.645 201.076 121.367 199.201 122.649 197.819C123.932 196.436 125.672 195.658 127.486 195.656H164.164C165.978 195.658 167.717 196.436 169 197.819C170.283 199.201 171.004 201.076 171.006 203.031V213.65C171.004 215.605 170.283 217.48 169 218.862C167.717 220.245 165.978 221.022 164.164 221.025H127.486C125.672 221.022 123.932 220.245 122.649 218.862C121.367 217.48 120.645 215.605 120.643 213.65Z" fill="#3F3D56"/>
<path d="M186.888 286.239L197.031 286.238L201.857 257.885L186.886 257.886L186.888 286.239Z" fill="#FFB8B8"/>
<path d="M184.301 296.835L217.008 296.834V296.388C217.008 294.586 216.678 292.802 216.039 291.138C215.399 289.473 214.461 287.961 213.279 286.687C212.097 285.413 210.694 284.402 209.149 283.713C207.605 283.023 205.949 282.668 204.278 282.668H204.276L184.3 282.669L184.301 296.835Z" fill="#2F2E41"/>
<path d="M202.059 268.657L222.281 219.786C223.97 215.667 224.156 211.014 222.804 206.753C221.452 202.492 218.66 198.937 214.985 196.795L171.122 171.447L151.107 169.612L132.644 167.803L132.511 168.046C132.34 168.356 128.371 175.746 131.054 183.848C133.09 189.994 138.384 194.795 146.79 198.117C166.411 205.87 189.077 212.497 197.911 214.986C198.302 215.093 198.667 215.289 198.982 215.559C199.297 215.83 199.556 216.169 199.741 216.555C199.926 216.936 200.036 217.355 200.064 217.784C200.092 218.214 200.037 218.645 199.903 219.05L181.116 264.539C180.92 265.116 180.849 265.734 180.91 266.345C180.97 266.956 181.16 267.543 181.464 268.063C181.769 268.582 182.18 269.019 182.666 269.341C183.152 269.662 183.7 269.858 184.268 269.915L198.306 271.017C198.425 271.029 198.544 271.035 198.662 271.035C199.381 271.035 200.084 270.81 200.687 270.388C201.29 269.966 201.767 269.364 202.059 268.657Z" fill="#2F2E41"/>
<path d="M180.268 286.239L190.411 286.238L195.238 257.885L180.267 257.886L180.268 286.239Z" fill="#FFB8B8"/>
<path d="M177.682 296.835L210.389 296.834V296.388C210.389 294.586 210.059 292.802 209.42 291.138C208.78 289.473 207.842 287.961 206.66 286.687C205.478 285.413 204.075 284.402 202.53 283.713C200.986 283.023 199.33 282.668 197.659 282.668H197.657L177.681 282.669L177.682 296.835Z" fill="#2F2E41"/>
<path d="M194.613 271.332L214.835 222.461C216.523 218.342 216.71 213.689 215.358 209.428C214.005 205.167 211.214 201.612 207.538 199.47L163.676 174.122L143.66 172.287L129.199 170.935L129.201 170.721C129.031 171.031 125.061 178.421 127.745 186.523C129.78 192.669 130.937 197.47 139.344 200.792C158.964 208.545 181.631 215.172 190.465 217.661C190.855 217.768 191.22 217.964 191.535 218.234C191.851 218.505 192.109 218.844 192.294 219.23C192.48 219.611 192.59 220.03 192.618 220.459C192.646 220.889 192.591 221.32 192.457 221.725L173.67 267.214C173.473 267.791 173.403 268.409 173.463 269.02C173.523 269.631 173.713 270.218 174.018 270.738C174.322 271.257 174.733 271.694 175.22 272.016C175.706 272.337 176.254 272.533 176.821 272.59L190.859 273.692C190.978 273.704 191.097 273.71 191.215 273.71C191.934 273.71 192.638 273.485 193.241 273.063C193.843 272.641 194.32 272.039 194.613 271.332Z" fill="#2F2E41"/>
<path d="M181.928 60.8338C184.524 49.0667 177.778 37.259 166.859 34.4606C155.94 31.6622 144.984 38.9328 142.387 50.6999C139.791 62.467 146.537 74.2746 157.456 77.073C168.375 79.8714 179.331 72.6009 181.928 60.8338Z" fill="#FFB8B8"/>
<path d="M232.206 139.91C240.703 127.728 247.421 114.217 252.125 99.845C252.398 98.9854 252.379 98.0494 252.071 97.2037C251.763 96.3579 251.187 95.6574 250.444 95.2267L221.366 78.4351C220.895 78.1614 220.373 78.007 219.839 77.9836C219.305 77.9602 218.773 78.0685 218.283 78.3002C217.785 78.5337 217.342 78.8867 216.989 79.3323C216.636 79.778 216.382 80.3045 216.247 80.8718C212.862 94.7209 206.5 107.517 197.675 118.225C197.312 118.66 197.046 119.18 196.897 119.743C196.748 120.307 196.721 120.9 196.816 121.476C196.908 122.044 197.119 122.581 197.433 123.048C197.747 123.514 198.156 123.897 198.628 124.167L227.707 140.959C228.45 141.387 229.311 141.516 230.135 141.323C230.959 141.131 231.693 140.63 232.206 139.91Z" fill="#CCCCCC"/>
<path d="M230.221 138.302C230.065 138.513 229.845 138.658 229.6 138.712C229.355 138.767 229.1 138.728 228.879 138.601L199.8 121.809C199.659 121.73 199.537 121.616 199.443 121.478C199.35 121.339 199.287 121.179 199.26 121.009C199.23 120.831 199.239 120.647 199.285 120.472C199.332 120.298 199.416 120.137 199.529 120.004C208.614 108.98 215.164 95.8074 218.648 81.5502C218.688 81.374 218.766 81.2103 218.875 81.0719C218.983 80.9334 219.12 80.824 219.275 80.7522C219.421 80.682 219.579 80.6491 219.739 80.6562C219.898 80.6633 220.054 80.7102 220.194 80.7931L249.272 97.5846C249.492 97.7129 249.664 97.92 249.758 98.1703C249.851 98.4206 249.861 98.6982 249.785 98.9552C245.164 113.07 238.567 126.339 230.221 138.302Z" fill="white"/>
<path d="M220.048 96.7467L240.105 109.416C242.1 110.676 243.907 107.337 241.915 106.078L221.858 93.4091C219.863 92.1486 218.056 95.4882 220.048 96.7467Z" fill="#CCCCCC"/>
<path d="M216.461 103.833L236.518 116.502C238.513 117.763 240.32 114.423 238.328 113.165L218.272 100.496C216.276 99.235 214.469 102.575 216.461 103.833Z" fill="#CCCCCC"/>
<path d="M213.644 110.892L231.884 122.562C233.699 123.723 235.64 121.322 233.828 120.163L215.587 108.493C213.773 107.332 211.832 109.733 213.644 110.892Z" fill="#CCCCCC"/>
<path d="M208.093 118.006L228.149 130.675C230.145 131.936 231.952 128.596 229.959 127.337L209.903 114.668C207.907 113.408 206.1 116.747 208.093 118.006Z" fill="#CCCCCC"/>
<path d="M173.875 173.221L133.66 172.962L133.649 172.653C132.883 150.908 135.349 131.211 141.188 112.435C141.271 111.733 141.36 110.981 141.448 110.244C142.445 101.844 143.237 95.1749 150.649 92.6911C150.031 91.8063 149.667 90.7461 149.602 89.6412C149.555 88.9069 149.644 88.1699 149.864 87.4731C150.084 86.7763 150.431 86.1338 150.884 85.5827C151.317 85.0506 151.844 84.6167 152.435 84.3062C153.025 83.9958 153.667 83.8151 154.323 83.7747L168.636 83.2494C169.389 83.2439 170.121 83.5113 170.715 84.0087C171.804 84.8811 172.57 86.1432 172.875 87.5688C173.18 88.9944 173.004 90.4905 172.379 91.789C172.21 92.1507 172.146 92.3156 172.121 92.3873C172.63 95.2605 174.14 98.6734 175.737 102.285C178.025 107.457 180.618 113.317 181.285 119.588C181.645 122.973 181.495 126.399 180.842 129.734C180.543 131.53 180.474 133.362 180.637 135.179C180.768 137.873 180.891 140.417 179.479 142.876C179.118 143.543 178.706 144.254 178.223 145.042L176.235 150.162L173.875 173.221Z" fill="#FF004D"/>
<path d="M113.526 203.651V115.096C113.529 112.211 114.594 109.444 116.488 107.404C118.381 105.363 120.948 104.215 123.626 104.212H126.419C129.097 104.215 131.664 105.363 133.557 107.404C135.45 109.444 136.515 112.211 136.518 115.096V203.651C136.515 206.537 135.45 209.303 133.557 211.344C131.664 213.384 129.097 214.532 126.419 214.535H123.626C120.948 214.532 118.381 213.384 116.488 211.344C114.594 209.303 113.529 206.537 113.526 203.651Z" fill="#3F3D56"/>
<path d="M221.367 123.935C221.078 124.324 220.818 124.737 220.59 125.171L179.249 128.424L173.58 119.455L159.902 126.908L168.508 143.836C169.203 145.204 170.291 146.291 171.609 146.936C172.926 147.58 174.402 147.747 175.815 147.41L221.861 136.44C223.096 137.824 224.693 138.77 226.439 139.152C228.185 139.534 229.997 139.334 231.635 138.579C233.273 137.824 234.659 136.549 235.609 134.924C236.558 133.299 237.026 131.401 236.95 129.483C236.874 127.565 236.258 125.717 235.184 124.185C234.11 122.653 232.629 121.51 230.937 120.908C229.245 120.305 227.423 120.272 225.714 120.813C224.004 121.354 222.488 122.442 221.367 123.935Z" fill="#FFB6B6"/>
<path d="M177.858 128.623L160.959 137.972C160.478 138.238 159.949 138.389 159.409 138.415C158.869 138.441 158.331 138.341 157.83 138.123C157.329 137.904 156.877 137.572 156.506 137.148C156.135 136.725 155.853 136.22 155.679 135.668L149.594 116.341C148.346 113.688 148.124 110.61 148.976 107.781C149.828 104.951 151.686 102.601 154.142 101.243C146.65 105.387 162.252 93.6162 168.207 106.119L179.199 122.658C179.514 123.132 179.73 123.673 179.833 124.245C179.936 124.816 179.923 125.405 179.796 125.971C179.669 126.538 179.43 127.067 179.095 127.525C178.761 127.983 178.339 128.357 177.858 128.623Z" fill="#FF004D"/>
<path d="M152.978 77.0676C151.754 77.0676 150.405 76.4322 148.883 75.145C144.406 71.3561 141.205 66.0887 139.773 60.1509C138.341 54.2132 138.755 47.9329 140.954 42.2736C142.06 39.4256 144.129 35.5546 147.704 33.286C150.274 31.656 153.292 31.0671 155.92 30.6431C158.195 30.2757 160.498 29.9832 162.766 29.7749C165.476 29.5252 168.607 29.3566 171.462 30.5254C173.553 31.3823 175.334 32.8953 177.056 34.3587C177.656 34.8682 178.276 35.3961 178.898 35.8843C180.404 37.1504 182.141 38.0596 183.995 38.5524C184.387 38.6398 184.756 38.8167 185.079 39.0712C185.401 39.3258 185.669 39.6519 185.864 40.0276C186.064 40.4095 186.185 40.8331 186.219 41.2697C186.254 41.7064 186.201 42.1459 186.064 42.5586C185.795 43.3701 185.553 44.1018 186.043 44.8945C186.225 45.1737 186.468 45.4007 186.75 45.5556C187.032 45.7104 187.344 45.7885 187.661 45.7828C187.828 45.7799 187.993 45.8219 188.141 45.9052C188.289 45.9885 188.416 46.1103 188.509 46.2597C188.604 46.4077 188.663 46.5784 188.682 46.7569C188.702 46.9354 188.68 47.1164 188.62 47.2839L188.541 47.5022C188.751 47.5233 188.954 47.5992 189.131 47.7234C189.308 47.8476 189.455 48.0163 189.558 48.215C189.711 48.4979 189.77 48.8288 189.726 49.153C189.681 49.4771 189.535 49.7752 189.312 49.9979C187.499 51.8582 185.238 53.1334 182.786 53.6789C181.108 54.0336 179.382 54.0293 177.705 53.6663L177.436 53.6096L177.469 53.2875C170.688 50.6811 164.567 55.1044 161.077 60.1613L160.573 59.8184C160.659 59.63 160.71 59.4246 160.721 59.2146C160.732 59.0046 160.703 58.7944 160.637 58.5967C160.567 58.3593 160.454 58.1393 160.304 57.949C160.155 57.7588 159.973 57.6022 159.767 57.4881C159.351 57.3034 158.894 57.2554 158.453 57.3502C158.013 57.4451 157.608 57.6785 157.29 58.021C156.966 58.3867 156.716 58.8211 156.557 59.2965C156.397 59.7719 156.331 60.2779 156.363 60.7822C156.455 61.8511 156.708 62.8968 157.111 63.8781C157.275 64.3474 157.445 64.8331 157.583 65.3226C158.356 68.1031 158.15 71.0929 157.005 73.72C156.477 74.9185 155.521 76.4466 153.971 76.9203C153.648 77.0187 153.313 77.0683 152.978 77.0676Z" fill="#2F2E41"/>
<path d="M483.288 298.123H0.711773C0.52336 298.123 0.342856 298.042 0.209821 297.898C0.076786 297.754 0.0020752 297.559 0.0020752 297.356C0.0020752 297.153 0.076786 296.959 0.209821 296.815C0.342856 296.671 0.52336 296.59 0.711773 296.589H483.288C483.477 296.589 483.658 296.67 483.792 296.814C483.925 296.958 484 297.153 484 297.356C484 297.56 483.925 297.755 483.792 297.899C483.658 298.043 483.477 298.123 483.288 298.123Z" fill="#CACACA"/>
</g>
<defs>
<clipPath id="clip0_115_1770">
<rect width="484" height="298" fill="white" transform="translate(0 0.123535)"/>
</clipPath>
</defs>
</svg>
